<svg version="1.2" xmlns="http://www.w3.org/2000/svg" viewBox="0 0 500 500" width="500" height="500">
	<title>logo-rootme</title>
	<style>
		.s0 { fill: #ffffff } 
		.s1 { fill: #686868 } 
	</style>
	<g id="Calque_2">
	</g>
	<g id="g13">
		<path id="path5" class="s0" d="m252.5 390.4c-0.2-0.2-0.4-0.4-0.4-0.6-0.2-0.2-0.2-0.2-0.4-0.4-0.2 0-0.2-0.2-0.4-0.2-0.2-0.1-0.3-0.1-0.5-0.3-0.2 0-0.4-0.2-0.6-0.2-0.2 0-0.4-0.2-0.4-0.2-0.2 0-0.4 0-0.5-0.2q-0.3 0-0.6 0-0.3 0-0.6 0-0.3 0-0.5 0-0.3 0-0.6 0c-0.2 0-0.4 0-0.6 0.2-0.2 0-0.4 0.2-0.4 0.2-0.1 0-0.3 0.2-0.5 0.2-0.2 0-0.4 0.2-0.6 0.3-0.2 0-0.2 0.2-0.4 0.2-0.2 0.2-0.2 0.2-0.4 0.4-0.1 0.2-0.3 0.4-0.3 0.4l-15.4 19.1c-1.8 2.5-1.5 5.9 1 7.8 0.9 0.7 2.3 1.1 3.4 1.1 1.7 0 3.2-0.8 4.3-2.1l0.2-0.2c5.7-7 16.3-7 21.8 0l0.2 0.2c1.1 1.3 2.6 2.1 4.3 2.1 1.2 0 2.5-0.4 3.4-1.1 2.5-1.9 2.9-5.5 1-7.8z"/>
		<path id="path7" class="s0" d="m226.9 67.2c-7.7 0-14.2 6.1-14.5 13.9l-29 10.5c-1.5 0.6-2.6 1.9-2.6 3.6v18.4h-23.3c-1.7-6.2-7.2-10.8-14-10.8-7.9 0-14.6 6.4-14.6 14.6 0 7.9 6.5 14.5 14.6 14.5 6.8 0 12.3-4.5 14-10.7h27.1c2 0 3.7-1.7 3.7-3.8v-19.5l25.6-9.5c2.4 4.8 7.4 8 12.8 8 8 0 14.6-6.5 14.6-14.6 0.2-7.9-6.4-14.6-14.4-14.6z"/>
		<path id="path9" class="s1" d="m196.3 338.2c-4.7-1.7-9.3-3.4-13.6-5.3-3.3-1.5-6.5-3.1-9.5-4.6 7.2 7.2 24.6 20.1 43.3 20.5 1.2-1.4 2.1-2.7 2.9-4.4-2.9-0.6-5.7-1.1-8.5-1.9-5.2-1.3-9.9-2.6-14.6-4.3z"/>
		<path id="path11" class="s0" d="m433.7 206.1c0-8.9-0.5-17.8-1.9-26.3 0-0.6-0.2-1.1-0.2-1.7-11.5-75.1-68.4-136.8-143.4-153.2-1.9-8.5-9.4-15-18.5-15-10.6 0-19.1 8.5-19.1 19.1 0 9.1 6.4 16.7 14.9 18.6v69.8c0 1.1 0.6 2.2 1.5 3 0.6 0.4 1.4 0.6 2.1 0.6 0.4 0 1 0 1.3-0.2l28-10.6c1.9 2.8 4.8 4.7 8.2 5.7v32.9c-14.2 17.4-31.8 33.1-50.5 47.1l-21.4-49.6c4-2.6 6.6-7 6.6-12.1 0-7.9-6.4-14.6-14.6-14.6-7.9 0-14.5 6.5-14.5 14.6 0 8 6.4 14.6 14.5 14.6 0.2 0 0.6 0 0.8 0l22.3 51.6c-13 9.5-26.5 18-39.7 25.8l-63.6-19.1c-0.7-0.2-1.5-0.2-2.2 0.1l-19 7.4c-2.6-3.6-6.8-5.8-11.7-5.8-7.9 0-14.6 6.4-14.6 14.5 0 8 6.5 14.6 14.6 14.6 8 0 14.6-6.4 14.6-14.6 0-0.5-0.2-1.1-0.2-1.7l17.8-7 55.4 16.7c-47.3 26.5-89.7 41.8-96.7 44.2l-3.4 1.2c-3-2.3-6.8-3.6-11-3.6q-0.2 0-0.5 0c-8.9-21-13.5-43.9-13.5-66.8 0-11.4 1.2-22.5 3.3-33.3h83c1.7 6.2 7.2 10.8 14 10.8 8 0 14.6-6.4 14.6-14.6 0-7.9-6.4-14.5-14.6-14.5-6.8 0-12.3 4.5-14 10.7h-81.3c15.3-62.2 64.5-112 128-126.7 3.5 5.5 9.5 9.2 16.3 9.2 10.6 0 19.1-8.5 19.1-19.1 0-10.6-8.5-19.1-19.1-19.1-9.3 0-16.8 6.7-18.7 15.2-83.4 18.9-144.6 94-144.6 181 0 24.8 5 49.6 14.6 72.3-3.6 3.4-5.7 8.3-5.7 13.6 0 8.5 5.5 15.5 13.1 18.2v74.5c0 1.3 0.4 2.7 1.1 3.8l4.2 2.8 56.6 40v47.6c0 4 3.2 7.2 7.1 7.2h189.2c4 0 7.2-3.2 7.2-7.2v-47.6l56.8-40 4.2-3c0.7-1.1 1.1-2.4 1.1-3.8v-75.1c7-2.8 11.9-9.6 11.9-17.6 0-4.9-1.9-9.4-4.9-12.8 10-22.6 15.1-47.5 15.1-72.7zm-214.9-183.3c1.7-1.9 4.2-3 6.8-3 5.1 0 9.3 4.1 9.3 9.2 0 5.1-4.2 9.3-9.3 9.3-1.9 0-3.6-0.6-5.1-1.5-2.5-1.7-4.2-4.6-4.2-7.6 0-2.6 1-4.9 2.5-6.4zm41.6 6c0-5.1 4.2-9.2 9.3-9.2 2.6 0 4.9 1.1 6.6 2.8 1.5 1.7 2.5 3.8 2.5 6.2 0 3.1-1.5 5.9-4 7.6-1.5 1.2-3.2 1.7-5.3 1.7-4.9 0.2-9.1-4-9.1-9.1zm35.6 72.9c0 0.5 0.2 0.9 0.2 1.3l-23.1 8.7v-64.3c5.7-1 10.4-4.4 13.1-9.1 20.2 4.5 39.1 12.7 56 23.8-0.2 28-11 53.8-28 77v-23.4c6.2-1.7 10.7-7.2 10.7-14 0-8-6.4-14.6-14.5-14.6-8 0.2-14.4 6.6-14.4 14.6zm-205.7 199.4c-2.2 0-4.3-1-6-2.3-1.9-1.7-3.2-4.1-3.2-6.8 0-1.1 0.2-2.3 0.5-3.2 1.4-3.4 4.8-5.9 8.5-5.9 1.7 0 3.3 0.6 4.6 1.3 2.6 1.6 4.5 4.6 4.5 8 0 1.7-0.5 3.2-1.3 4.5-1.3 2.7-4.2 4.4-7.6 4.4zm316-28.2q-0.9 0-1.7 0c-10.6 0-19.1 8.5-19.1 19.1 0 8.1 5.1 15.1 12.5 17.8v69.6l-59.6 42c-1.9 1.3-3.1 3.6-3.1 5.9v40.1c0 2.3-1.9 4.1-4.1 4.1h-22.2c-2.2 0-4.1-1.8-4.1-4.1v-14.4c0-3.8-2.7-7.2-6.5-7.6-4.3-0.3-7.9 3.1-7.9 7.2v15c0 2.2-1.9 4.1-4.2 4.1h-27c-2.3 0-4.2-1.9-4.2-4.1v-22.2c0-3.7-2.6-7.1-6.4-7.5-4.4-0.4-8 3-8 7.2v22.7c0 2.2-1.8 4.1-4.1 4.1h-27.1c-2.2 0-4.1-1.9-4.1-4.1v-14.8c0-3.8-2.7-7.2-6.5-7.6-4.3-0.3-7.9 3.1-7.9 7.2v15c0 2.2-1.9 4.1-4.2 4.1h-22.1c-2.3 0-4.2-1.9-4.2-4.1v-40.1c0-2.3-1.1-4.6-3-5.9l-59.4-42v-70.4c6.6-3 11.2-9.6 11.2-17.4 0-1.1-0.2-2.3-0.4-3.4 7.5-2.6 65.2-23.3 122-58.6 76.8-47.9 119.4-102.2 124.3-158 33.1 26.7 56 65.3 62.6 108.6-0.9 94.8-166.1 153.2-167.8 153.8-0.4 0.2-1.3 0.4-2.1 0.8-2-0.4-4.1-0.8-6.4-1.2-1.5-0.4-3.2-0.6-4.7-0.9-2.5-0.4-4.9-1-7.4-1.5-0.4-0.2-1-0.2-1.3-0.2q-1.5-0.3-2.9-0.6c-1.1-0.2-2.2-0.6-3.4-0.8-2.6-0.5-5.3-1.1-7.7-1.8-4.8-1.2-9.3-2.5-13.8-3.6-4.4-1.4-8.9-2.5-13.1-3.8-0.2 0-0.2 0-0.4 0-3.2-1-6.2-1.9-9.2-3.1-1-0.3-2.1-0.7-3.1-0.9-1.5-0.6-2.8-0.9-4.1-1.3-2.5-0.8-4.8-1.5-6.8-2.5h-0.2q-5.1-1.7-9.1-3.4c-2.9-1.1-5.3-2.1-7.2-2.8-1.9-1-3.6-1.5-4.5-2.1-1.2-0.6-1.8-0.8-1.8-0.8 0 0 0.4 0.6 1.2 1.4 0.7 0.9 1.9 2.2 3.6 3.7 1.5 1.6 3.6 3.4 6 5.3 2.5 1.9 5.3 4 8.4 6.1 0 0 0 0 0.1 0-1.1 3.8-1.8 7.9-1.8 12.1 0 21.8 17.7 39.5 39.5 39.5 16.8 0 31.2-10.6 36.9-25.5 1.9 0.2 4 0.4 5.9 0.6 3.4 0.2 6.6 0.2 9.6 0.2 0.2 0 0.4 0.1 0.6 0.1l31.9 32.6c8.2 8.1 20.9 9.4 30.3 3.2l50-28c4.3-2.8 7.2-7.8 7.2-13v-57.6c19.2-15.3 36.7-33.5 48-54.1q-3.1 22.4-11.9 42.6zm5.7 24.6c-1.7 2.1-4.4 3.6-7.2 3.6-2.7 0-4.9-1.1-6.6-2.9-1.6-1.7-2.5-3.7-2.5-6.2 0-4 2.5-7.4 6-8.5 1-0.4 2.1-0.6 3.3-0.6 4.3 0 8.1 3.2 9 7.4 0.2 0.6 0.2 1.1 0.2 1.9-0.3 1.9-1.1 3.8-2.2 5.3zm-192.6 46.9c-0.8 1.5-1.9 3-2.9 4.4-4.5 5.3-11.3 8.7-18.9 8.7-7.6 0-14.4-3.4-18.9-8.7-3.8-4.4-5.9-10.1-5.9-16.1 0-1.5 0.2-2.9 0.4-4.4 3 1.5 6.2 3.1 9.5 4.6 4.3 1.9 8.9 3.8 13.6 5.3 4.7 1.7 9.6 3 14.6 4.3 2.8 0.8 5.6 1.3 8.5 1.9z"/>
	</g>
</svg>